<mxfile host="app.diagrams.net" modified="2024-03-11T10:56:45.566Z" agent="Mozilla/5.0 (Macintosh; Intel Mac OS X 10_15_7) AppleWebKit/605.1.15 (KHTML, like Gecko) Version/17.3.1 Safari/605.1.15" etag="kc-taRkwUVPCEXKAGGVe" version="24.0.4" type="github">
  <diagram name="Страница — 1" id="0OB4QwQC5n0Iw7WaUsuT">
    <mxGraphModel dx="1162" dy="1479" grid="0" gridSize="10" guides="1" tooltips="1" connect="1" arrows="1" fold="1" page="0" pageScale="1" pageWidth="827" pageHeight="1169" math="0" shadow="0">
      <root>
        <mxCell id="0" />
        <mxCell id="1" parent="0" />
        <mxCell id="T1vWsJnUSZiWMTGMldm9-8" value="" style="edgeStyle=none;curved=1;rounded=0;orthogonalLoop=1;jettySize=auto;html=1;fontSize=12;startSize=8;endSize=8;" edge="1" parent="1" source="T1vWsJnUSZiWMTGMldm9-1" target="T1vWsJnUSZiWMTGMldm9-2">
          <mxGeometry relative="1" as="geometry" />
        </mxCell>
        <mxCell id="T1vWsJnUSZiWMTGMldm9-1" value="Start" style="ellipse;whiteSpace=wrap;html=1;" vertex="1" parent="1">
          <mxGeometry x="144" y="-217" width="120" height="70" as="geometry" />
        </mxCell>
        <mxCell id="T1vWsJnUSZiWMTGMldm9-9" value="" style="edgeStyle=none;curved=1;rounded=0;orthogonalLoop=1;jettySize=auto;html=1;fontSize=12;startSize=8;endSize=8;" edge="1" parent="1" source="T1vWsJnUSZiWMTGMldm9-2" target="T1vWsJnUSZiWMTGMldm9-3">
          <mxGeometry relative="1" as="geometry" />
        </mxCell>
        <mxCell id="T1vWsJnUSZiWMTGMldm9-2" value="InputArray&lt;div&gt;Count=0&lt;/div&gt;" style="shape=parallelogram;perimeter=parallelogramPerimeter;whiteSpace=wrap;html=1;fixedSize=1;" vertex="1" parent="1">
          <mxGeometry x="144" y="-94" width="120" height="60" as="geometry" />
        </mxCell>
        <mxCell id="T1vWsJnUSZiWMTGMldm9-10" value="" style="edgeStyle=none;curved=1;rounded=0;orthogonalLoop=1;jettySize=auto;html=1;fontSize=12;startSize=8;endSize=8;" edge="1" parent="1" source="T1vWsJnUSZiWMTGMldm9-3" target="T1vWsJnUSZiWMTGMldm9-4">
          <mxGeometry relative="1" as="geometry" />
        </mxCell>
        <mxCell id="T1vWsJnUSZiWMTGMldm9-20" style="edgeStyle=none;curved=1;rounded=0;orthogonalLoop=1;jettySize=auto;html=1;fontSize=12;startSize=8;endSize=8;" edge="1" parent="1" source="T1vWsJnUSZiWMTGMldm9-3">
          <mxGeometry relative="1" as="geometry">
            <mxPoint x="480" y="85" as="targetPoint" />
          </mxGeometry>
        </mxCell>
        <mxCell id="T1vWsJnUSZiWMTGMldm9-3" value="for (int i = 0; i &amp;lt; inputArray.Length; i++)" style="rhombus;whiteSpace=wrap;html=1;" vertex="1" parent="1">
          <mxGeometry x="53" y="41" width="295" height="87" as="geometry" />
        </mxCell>
        <mxCell id="T1vWsJnUSZiWMTGMldm9-11" value="" style="edgeStyle=none;curved=1;rounded=0;orthogonalLoop=1;jettySize=auto;html=1;fontSize=12;startSize=8;endSize=8;" edge="1" parent="1" source="T1vWsJnUSZiWMTGMldm9-4" target="T1vWsJnUSZiWMTGMldm9-7">
          <mxGeometry relative="1" as="geometry" />
        </mxCell>
        <mxCell id="T1vWsJnUSZiWMTGMldm9-15" value="Yes" style="edgeLabel;html=1;align=center;verticalAlign=middle;resizable=0;points=[];fontSize=12;" vertex="1" connectable="0" parent="T1vWsJnUSZiWMTGMldm9-11">
          <mxGeometry x="-0.4054" y="-3" relative="1" as="geometry">
            <mxPoint x="15" y="8" as="offset" />
          </mxGeometry>
        </mxCell>
        <mxCell id="T1vWsJnUSZiWMTGMldm9-13" value="" style="edgeStyle=none;curved=1;rounded=0;orthogonalLoop=1;jettySize=auto;html=1;fontSize=12;startSize=8;endSize=8;" edge="1" parent="1" source="T1vWsJnUSZiWMTGMldm9-4" target="T1vWsJnUSZiWMTGMldm9-12">
          <mxGeometry relative="1" as="geometry" />
        </mxCell>
        <mxCell id="T1vWsJnUSZiWMTGMldm9-4" value="if( inputArray[i].Length &amp;lt;=3)" style="rhombus;whiteSpace=wrap;html=1;" vertex="1" parent="1">
          <mxGeometry x="108" y="168" width="192" height="98" as="geometry" />
        </mxCell>
        <mxCell id="T1vWsJnUSZiWMTGMldm9-22" style="edgeStyle=none;curved=1;rounded=0;orthogonalLoop=1;jettySize=auto;html=1;fontSize=12;startSize=8;endSize=8;" edge="1" parent="1" source="T1vWsJnUSZiWMTGMldm9-5" target="T1vWsJnUSZiWMTGMldm9-6">
          <mxGeometry relative="1" as="geometry" />
        </mxCell>
        <mxCell id="T1vWsJnUSZiWMTGMldm9-5" value="resultArray[i]" style="shape=document;whiteSpace=wrap;html=1;boundedLbl=1;" vertex="1" parent="1">
          <mxGeometry x="412" y="137" width="120" height="80" as="geometry" />
        </mxCell>
        <mxCell id="T1vWsJnUSZiWMTGMldm9-6" value="End" style="ellipse;whiteSpace=wrap;html=1;" vertex="1" parent="1">
          <mxGeometry x="412" y="293" width="120" height="80" as="geometry" />
        </mxCell>
        <mxCell id="T1vWsJnUSZiWMTGMldm9-16" style="edgeStyle=none;curved=1;rounded=0;orthogonalLoop=1;jettySize=auto;html=1;fontSize=12;startSize=8;endSize=8;" edge="1" parent="1" source="T1vWsJnUSZiWMTGMldm9-7">
          <mxGeometry relative="1" as="geometry">
            <mxPoint x="-118" y="370" as="targetPoint" />
          </mxGeometry>
        </mxCell>
        <mxCell id="T1vWsJnUSZiWMTGMldm9-7" value="resultArray[index] = inputArray[i]&lt;div&gt;index++&lt;/div&gt;" style="rounded=0;whiteSpace=wrap;html=1;" vertex="1" parent="1">
          <mxGeometry x="144" y="340" width="120" height="60" as="geometry" />
        </mxCell>
        <mxCell id="T1vWsJnUSZiWMTGMldm9-18" style="edgeStyle=none;curved=1;rounded=0;orthogonalLoop=1;jettySize=auto;html=1;fontSize=12;startSize=8;endSize=8;" edge="1" parent="1" source="T1vWsJnUSZiWMTGMldm9-12">
          <mxGeometry relative="1" as="geometry">
            <mxPoint x="-16" y="88" as="targetPoint" />
          </mxGeometry>
        </mxCell>
        <mxCell id="T1vWsJnUSZiWMTGMldm9-12" value="index++" style="rounded=0;whiteSpace=wrap;html=1;" vertex="1" parent="1">
          <mxGeometry x="-78" y="187" width="120" height="60" as="geometry" />
        </mxCell>
        <mxCell id="T1vWsJnUSZiWMTGMldm9-14" value="No" style="text;html=1;align=center;verticalAlign=middle;resizable=0;points=[];autosize=1;strokeColor=none;fillColor=none;fontSize=16;" vertex="1" parent="1">
          <mxGeometry x="60.5" y="194.5" width="38" height="31" as="geometry" />
        </mxCell>
        <mxCell id="T1vWsJnUSZiWMTGMldm9-17" value="" style="edgeStyle=none;orthogonalLoop=1;jettySize=auto;html=1;rounded=0;fontSize=12;startSize=8;endSize=8;curved=1;" edge="1" parent="1">
          <mxGeometry width="140" relative="1" as="geometry">
            <mxPoint x="-120" y="362" as="sourcePoint" />
            <mxPoint x="-116" y="80" as="targetPoint" />
            <Array as="points" />
          </mxGeometry>
        </mxCell>
        <mxCell id="T1vWsJnUSZiWMTGMldm9-19" value="" style="edgeStyle=none;orthogonalLoop=1;jettySize=auto;html=1;rounded=0;fontSize=12;startSize=8;endSize=8;curved=1;" edge="1" parent="1">
          <mxGeometry width="140" relative="1" as="geometry">
            <mxPoint x="-113" y="84" as="sourcePoint" />
            <mxPoint x="51" y="84" as="targetPoint" />
            <Array as="points" />
          </mxGeometry>
        </mxCell>
        <mxCell id="T1vWsJnUSZiWMTGMldm9-21" value="" style="edgeStyle=none;orthogonalLoop=1;jettySize=auto;html=1;rounded=0;fontSize=12;startSize=8;endSize=8;curved=1;entryX=0.583;entryY=-0.025;entryDx=0;entryDy=0;entryPerimeter=0;" edge="1" parent="1" target="T1vWsJnUSZiWMTGMldm9-5">
          <mxGeometry width="140" relative="1" as="geometry">
            <mxPoint x="472" y="83" as="sourcePoint" />
            <mxPoint x="544" y="93" as="targetPoint" />
            <Array as="points">
              <mxPoint x="486" y="93" />
            </Array>
          </mxGeometry>
        </mxCell>
      </root>
    </mxGraphModel>
  </diagram>
</mxfile>
